<svg width="202" height="160" viewBox="0 0 202 160" fill="none" xmlns="http://www.w3.org/2000/svg">
<rect x="51.3887" y="14.3988" width="103.264" height="143.807" rx="10.3049" fill="#FFC100"/>
<rect x="51.3887" y="14.3988" width="103.264" height="143.807" rx="10.3049" stroke="#1B1B1B" stroke-width="0.7" stroke-linecap="round" stroke-linejoin="round"/>
<rect x="59.8467" y="21.6219" width="86.3463" height="129.36" rx="1.87781" fill="white" stroke="#1B1B1B" stroke-width="0.7" stroke-linecap="round" stroke-linejoin="round"/>
<rect x="69" y="42.8876" width="11.4737" height="11.5108" rx="5.73686" fill="#D1D1D1" stroke="#1B1B1B" stroke-width="0.7" stroke-linecap="round" stroke-linejoin="round"/>
<rect x="84.5186" y="44.4127" width="56.9395" height="8.46066" rx="4.23033" fill="#D1D1D1" stroke="#1B1B1B" stroke-width="0.7" stroke-linecap="round" stroke-linejoin="round"/>
<rect x="69" y="113.372" width="11.4737" height="11.5108" rx="5.73686" fill="white"/>
<rect x="84.5186" y="114.897" width="56.9395" height="8.46066" rx="4.23033" fill="white"/>
<rect x="69" y="66.3823" width="11.4737" height="11.5108" rx="5.73686" fill="white"/>
<rect x="84.5186" y="67.9075" width="56.9395" height="8.46066" rx="4.23033" fill="white"/>
<rect x="69" y="89.8771" width="11.4737" height="11.5108" rx="5.73686" fill="white"/>
<rect x="84.5186" y="91.4021" width="56.9395" height="8.46066" rx="4.23033" fill="white"/>
<path fill-rule="evenodd" clip-rule="evenodd" d="M111.635 9.64222H116.359C122.447 9.64222 127.382 14.5936 127.382 20.7015V21.9494C127.383 22.4483 127.186 22.9272 126.834 23.2805C126.481 23.6339 126.003 23.8329 125.504 23.8337H80.5365C80.0375 23.8329 79.5593 23.6339 79.2071 23.2806C78.8548 22.9272 78.6574 22.4484 78.6582 21.9494V20.7015C78.6582 14.5936 83.5938 9.64222 89.6818 9.64222H94.4059C94.4059 4.8693 98.2628 1 103.02 1C107.778 1 111.635 4.8693 111.635 9.64222ZM99.7345 11.0079C100.287 12.3333 101.584 13.1947 103.02 13.1901H103.02C103.96 13.1886 104.86 12.814 105.523 12.1486C106.187 11.4833 106.558 10.5817 106.557 9.64221C106.557 8.20621 105.691 6.91182 104.364 6.36337C103.037 5.81491 101.51 6.12056 100.496 7.13761C99.4825 8.15465 99.1818 9.68252 99.7345 11.0079Z" fill="white"/>
<mask id="mask0_269_2127" style="mask-type:luminance" maskUnits="userSpaceOnUse" x="78" y="1" width="50" height="23">
<path fill-rule="evenodd" clip-rule="evenodd" d="M116.359 9.64222H111.635C111.635 4.8693 107.778 1 103.02 1C98.2628 1 94.4059 4.8693 94.4059 9.64222H89.6818C83.5938 9.64222 78.6582 14.5936 78.6582 20.7015V21.9494C78.6574 22.4484 78.8548 22.9272 79.2071 23.2806C79.5593 23.6339 80.0375 23.8329 80.5365 23.8337H125.504C126.003 23.8329 126.481 23.6339 126.834 23.2805C127.186 22.9272 127.383 22.4483 127.382 21.9494V20.7015C127.382 14.5936 122.447 9.64222 116.359 9.64222ZM103.02 13.1901C101.584 13.1947 100.287 12.3333 99.7345 11.0079C99.1818 9.68252 99.4825 8.15465 100.496 7.13761C101.51 6.12056 103.037 5.81491 104.364 6.36337C105.691 6.91182 106.557 8.20621 106.557 9.64221C106.558 10.5817 106.187 11.4833 105.523 12.1486C104.86 12.814 103.96 13.1886 103.02 13.1901H103.02Z" fill="white"/>
</mask>
<g mask="url(#mask0_269_2127)">
<path d="M121.743 5.42744C132.069 21.1332 110.081 24.6803 81.6875 19.8993C53.2938 15.1182 84.604 27.4823 84.604 27.4823L140.396 29.3202L135.4 5.26036L119.911 4.04419" fill="white"/>
</g>
<path d="M111.635 9.64222H111.285C111.285 9.83552 111.442 9.99222 111.635 9.99222V9.64222ZM94.4059 9.64222V9.99222C94.5992 9.99222 94.7559 9.83552 94.7559 9.64222H94.4059ZM78.6582 21.9494L79.0082 21.95V21.9494H78.6582ZM80.5365 23.8337L80.5359 24.1837H80.5365V23.8337ZM125.504 23.8337L125.504 24.1837L125.505 24.1837L125.504 23.8337ZM127.382 21.9494L127.032 21.9494L127.032 21.95L127.382 21.9494ZM103.02 13.1901L103.022 13.5401C103.215 13.5395 103.371 13.3826 103.37 13.1896C103.37 12.9965 103.214 12.8401 103.02 12.8401V13.1901ZM106.557 9.64221L106.207 9.64222L106.207 9.64279L106.557 9.64221ZM103.02 13.1901L103.02 12.8401C102.827 12.8404 102.67 12.9972 102.67 13.1904C102.671 13.3836 102.827 13.5401 103.02 13.5401L103.02 13.1901ZM116.359 9.29222H111.635V9.99222H116.359V9.29222ZM111.985 9.64222C111.985 4.67706 107.972 0.65 103.02 0.65V1.35C107.583 1.35 111.285 5.06155 111.285 9.64222H111.985ZM103.02 0.65C98.0684 0.65 94.0559 4.67707 94.0559 9.64222H94.7559C94.7559 5.06154 98.4571 1.35 103.02 1.35V0.65ZM94.4059 9.29222H89.6818V9.99222H94.4059V9.29222ZM89.6818 9.29222C83.3994 9.29222 78.3082 14.4014 78.3082 20.7015H79.0082C79.0082 14.7859 83.7881 9.99222 89.6818 9.99222V9.29222ZM78.3082 20.7015V21.9494H79.0082V20.7015H78.3082ZM78.3082 21.9489C78.3072 22.5406 78.5414 23.1086 78.9592 23.5277L79.455 23.0335C79.1683 22.7459 79.0075 22.3561 79.0082 21.95L78.3082 21.9489ZM78.9592 23.5277C79.377 23.9468 79.9442 24.1828 80.5359 24.1837L80.537 23.4837C80.1309 23.483 79.7417 23.3211 79.455 23.0335L78.9592 23.5277ZM80.5365 24.1837H125.504V23.4837H80.5365V24.1837ZM125.505 24.1837C126.097 24.1827 126.664 23.9467 127.081 23.5276L126.586 23.0334C126.299 23.3211 125.91 23.483 125.504 23.4837L125.505 24.1837ZM127.081 23.5276C127.499 23.1085 127.733 22.5406 127.732 21.9489L127.032 21.95C127.033 22.3561 126.872 22.7458 126.586 23.0334L127.081 23.5276ZM127.732 21.9494V20.7015H127.032V21.9494H127.732ZM127.732 20.7015C127.732 14.4014 122.641 9.29222 116.359 9.29222V9.99222C122.253 9.99222 127.032 14.7859 127.032 20.7015H127.732ZM103.019 12.8401C101.725 12.8443 100.556 12.0678 100.058 10.8732L99.4115 11.1426C100.019 12.5987 101.444 13.5452 103.022 13.5401L103.019 12.8401ZM100.058 10.8732C99.5593 9.67855 99.8304 8.30141 100.744 7.38469L100.248 6.89052C99.1346 8.0079 98.8042 9.68649 99.4115 11.1426L100.058 10.8732ZM100.744 7.38469C101.658 6.46798 103.034 6.19249 104.23 6.68683L104.498 6.0399C103.04 5.43734 101.362 5.77314 100.248 6.89052L100.744 7.38469ZM104.23 6.68683C105.427 7.18118 106.207 8.34787 106.207 9.64222L106.907 9.64221C106.907 8.06454 105.956 6.64246 104.498 6.0399L104.23 6.68683ZM106.207 9.64279C106.208 10.4894 105.873 11.3019 105.276 11.9016L105.771 12.3957C106.5 11.6646 106.909 10.6739 106.907 9.64163L106.207 9.64279ZM105.276 11.9016C104.678 12.5012 103.866 12.8388 103.02 12.8401L103.021 13.5401C104.053 13.5385 105.043 13.1268 105.771 12.3957L105.276 11.9016ZM103.02 13.5401H103.02V12.8401H103.02V13.5401Z" fill="#1B1B1B"/>
<path d="M92.0012 31.6832L88.668 35.3569" stroke="#1B1B1B" stroke-width="0.7" stroke-linecap="round" stroke-linejoin="round"/>
<path d="M143.612 137.265C142.42 138.972 140.823 140.355 138.964 141.292" stroke="#1B1B1B" stroke-width="0.7" stroke-linecap="round" stroke-linejoin="round"/>
<path d="M54.3175 62.0607C54.3175 62.0607 52.3851 52.197 51.9828 49.5468C51.5804 46.8967 48.563 44.498 47.9372 45.823C47.3113 47.1481 49.2783 49.8929 48.2948 49.9875C47.3113 50.0822 48.1559 51.4546 49.343 51.7858C50.5301 52.1171 49.8637 57.2281 49.8637 57.2281L54.3175 62.0607Z" fill="white"/>
<mask id="mask1_269_2127" style="mask-type:luminance" maskUnits="userSpaceOnUse" x="47" y="45" width="8" height="18">
<path fill-rule="evenodd" clip-rule="evenodd" d="M54.3185 62.0608C54.3185 62.0608 52.3861 52.1971 51.9838 49.547C51.5814 46.8968 48.564 44.4981 47.9381 45.8231C47.3123 47.1482 49.2793 49.893 48.2958 49.9877C47.3123 50.0823 48.1569 51.4547 49.344 51.786C50.531 52.1172 49.8647 57.2282 49.8647 57.2282L54.3185 62.0608Z" fill="white"/>
</mask>
<g mask="url(#mask1_269_2127)">
<path d="M49.7169 53.8209C52.1362 54.3491 55.6918 56.714 55.6918 56.714L51.7329 57.4608L48.166 55.3759L48.6003 53.7539" fill="white"/>
</g>
<path fill-rule="evenodd" clip-rule="evenodd" d="M54.3175 62.0607C54.3175 62.0607 52.3851 52.197 51.9828 49.5468C51.5804 46.8967 48.563 44.498 47.9372 45.823C47.3113 47.1481 49.2783 49.8929 48.2948 49.9875C47.3113 50.0822 48.1559 51.4546 49.343 51.7858C50.5301 52.1171 49.8637 57.2281 49.8637 57.2281L54.3175 62.0607Z" stroke="#1B1B1B" stroke-width="0.7" stroke-linecap="round" stroke-linejoin="round"/>
<path d="M49.918 53.7578C49.918 53.7578 52.766 55.3825 53.8389 57.2282C53.8389 57.2282 56.1188 75.1167 52.766 76.1105C49.4131 77.1043 28.6252 65.0367 31.0393 60.6355C33.4533 56.2344 48.8766 66.5984 48.8766 66.5984L49.918 53.7578Z" fill="white"/>
<mask id="mask2_269_2127" style="mask-type:luminance" maskUnits="userSpaceOnUse" x="30" y="53" width="25" height="24">
<path fill-rule="evenodd" clip-rule="evenodd" d="M49.918 53.7578C49.918 53.7578 52.766 55.3825 53.8389 57.2282C53.8389 57.2282 56.1188 75.1167 52.766 76.1105C49.4131 77.1043 28.6252 65.0367 31.0393 60.6355C33.4533 56.2344 48.8766 66.5984 48.8766 66.5984L49.918 53.7578Z" fill="white"/>
</mask>
<g mask="url(#mask2_269_2127)">
<ellipse cx="52.7288" cy="76.1684" rx="3.22978" ry="1.88874" fill="white" stroke="#1B1B1B" stroke-width="0.7" stroke-linecap="round" stroke-linejoin="round"/>
</g>
<path fill-rule="evenodd" clip-rule="evenodd" d="M49.918 53.7578C49.918 53.7578 52.766 55.3825 53.8389 57.2282C53.8389 57.2282 56.1188 75.1167 52.766 76.1105C49.4131 77.1043 28.6252 65.0367 31.0393 60.6355C33.4533 56.2344 48.8766 66.5984 48.8766 66.5984L49.918 53.7578Z" stroke="#1B1B1B" stroke-width="0.7" stroke-linecap="round" stroke-linejoin="round"/>
<path d="M49.4453 55.9645L49.6338 53.6843C49.6338 53.6843 53.6907 53.7539 54.3165 55.7082L54.1796 57.4602C54.1796 57.4602 51.3227 54.5371 49.4453 55.9645Z" fill="white" stroke="#1B1B1B" stroke-width="0.7" stroke-linecap="round" stroke-linejoin="round"/>
<path d="M42.3999 132.867H35.7835C32.5565 145.465 29.6384 157.979 30.8441 157.979C33.2141 157.979 45.1505 159.4 45.1529 158.405C45.1571 156.69 35.2782 156.488 36.5336 152.075C37.0489 150.264 39.6051 140.929 42.3999 132.867Z" fill="#1B1B1B" stroke="#1B1B1B" stroke-width="0.7" stroke-linecap="round" stroke-linejoin="round"/>
<path d="M50.9889 108.289L42.5622 107.33C42.3034 108.461 38.8992 120.703 35.7832 132.867H42.3996C46.4133 121.29 50.9889 108.289 50.9889 108.289Z" fill="white"/>
<mask id="mask3_269_2127" style="mask-type:luminance" maskUnits="userSpaceOnUse" x="35" y="107" width="16" height="26">
<path fill-rule="evenodd" clip-rule="evenodd" d="M50.9889 108.289L42.5622 107.33C42.3034 108.461 38.8992 120.703 35.7832 132.867H42.3996C46.4133 121.29 50.9889 108.289 50.9889 108.289Z" fill="white"/>
</mask>
<g mask="url(#mask3_269_2127)">
<path d="M33.6807 116.392C46.3361 115.372 43.8793 112.152 50.3181 110.198C56.7569 108.243 42.5624 107.33 42.5624 107.33L39.8305 110.889" fill="white"/>
</g>
<path fill-rule="evenodd" clip-rule="evenodd" d="M50.9889 108.289L42.5622 107.33C42.3034 108.461 38.8992 120.703 35.7832 132.867H42.3996C46.4133 121.29 50.9889 108.289 50.9889 108.289Z" stroke="#1B1B1B" stroke-width="0.7" stroke-linecap="round" stroke-linejoin="round"/>
<path d="M17.7947 106.999L17.829 98.7609C9.6316 94.6842 1.81098 90.479 1.48118 92.4939C1.00457 95.4058 0.719484 107.01 1.42047 107.084C3.74001 107.33 3.70969 98.0725 6.58036 99.6561C7.75873 100.306 12.5526 103.481 17.7947 106.999Z" fill="#1B1B1B" stroke="#1B1B1B" stroke-width="0.7" stroke-linecap="round" stroke-linejoin="round"/>
<path d="M35.5788 115.748L44.1529 105.949C43.7931 105.789 40.1795 108.546 34.8431 107.33C29.2637 106.058 21.875 100.773 17.8292 98.7609L17.7949 106.999C23.0111 110.499 28.6714 114.338 31.6561 116.366C32.9367 117.236 34.4916 116.99 35.5788 115.748Z" fill="white"/>
<mask id="mask4_269_2127" style="mask-type:luminance" maskUnits="userSpaceOnUse" x="17" y="98" width="28" height="19">
<path fill-rule="evenodd" clip-rule="evenodd" d="M35.5778 115.748L44.152 105.949C43.7921 105.789 40.1785 108.546 34.8422 107.33C29.2627 106.058 21.874 100.773 17.8282 98.7607L17.7939 106.999C23.0102 110.499 28.6704 114.338 31.6551 116.366C32.9357 117.236 34.4907 116.99 35.5778 115.748Z" fill="white"/>
</mask>
<g mask="url(#mask4_269_2127)">
<path d="M22.1416 99.531C22.2657 111.23 35.7825 112.752 35.7825 112.752L25.715 99.531" fill="white"/>
</g>
<path fill-rule="evenodd" clip-rule="evenodd" d="M35.5788 115.748L44.1529 105.949C43.7931 105.789 40.1795 108.546 34.8431 107.33C29.2637 106.058 21.875 100.773 17.8292 98.7609L17.7949 106.999C23.0111 110.499 28.6714 114.338 31.6561 116.366C32.9367 117.236 34.4916 116.99 35.5788 115.748Z" stroke="#1B1B1B" stroke-width="0.7" stroke-linecap="round" stroke-linejoin="round"/>
<path d="M34.075 77.6509C35.655 93.957 18.7461 100.542 26.0794 107.821C36.567 118.232 58.3369 110.204 56.5901 101.722C53.9413 88.86 44.8508 76.1683 44.8508 76.1683L34.075 77.6509Z" fill="white"/>
<mask id="mask5_269_2127" style="mask-type:luminance" maskUnits="userSpaceOnUse" x="24" y="76" width="33" height="37">
<path fill-rule="evenodd" clip-rule="evenodd" d="M34.074 77.6509C35.654 93.957 18.7451 100.542 26.0784 107.821C36.566 118.232 58.3359 110.204 56.5891 101.722C53.9404 88.86 44.8498 76.1683 44.8498 76.1683L34.074 77.6509Z" fill="white"/>
</mask>
<g mask="url(#mask5_269_2127)">
<path d="M21.1357 92.7074C35.6791 94.0235 33.9527 85.0863 39.8582 84.8451C45.7637 84.604 48.9932 78.3892 48.9932 78.3892L30.2773 76.1685L28.7714 78.037L21.1357 92.7074Z" fill="white" stroke="#1B1B1B" stroke-width="0.7" stroke-linecap="round" stroke-linejoin="round"/>
<path d="M61.632 97.3372L55.9076 92.7135L51.3127 98.4392L45.6055 93.8293L41.0107 99.5549L35.3035 94.945L30.7085 100.671L25.0013 96.0608L20.3926 101.804L26.0463 106.37L21.4943 112.042L27.2186 116.666L31.8136 110.94L37.5208 115.55L42.1158 109.825L47.8229 114.435L52.4179 108.709L58.1249 113.319L62.7338 107.576L57.0799 103.009L61.632 97.3372V97.3372Z" fill="#FFC100" stroke="#1B1B1B" stroke-width="0.7" stroke-linecap="round" stroke-linejoin="round"/>
<path d="M31.8104 110.91L26.1738 106.357L30.712 100.702L36.3486 105.255L31.8104 110.91V110.91Z" fill="white" stroke="#1B1B1B" stroke-width="0.7" stroke-linecap="round" stroke-linejoin="round"/>
<path d="M42.1132 109.794L36.4766 105.241L41.0148 99.5858L46.6514 104.139L42.1132 109.794V109.794Z" fill="white" stroke="#1B1B1B" stroke-width="0.7" stroke-linecap="round" stroke-linejoin="round"/>
<path d="M52.4151 108.678L46.7783 104.125L51.3167 98.4701L56.9533 103.023L52.4151 108.678V108.678Z" fill="white" stroke="#1B1B1B" stroke-width="0.7" stroke-linecap="round" stroke-linejoin="round"/>
<path d="M59.4201 76.8788L53.6957 72.2551L49.1008 77.9808L43.3936 73.3709L38.7988 79.0965L33.0916 74.4866L28.4966 80.2123L22.7894 75.6024L18.1807 81.3453L23.8344 85.912L19.2824 91.5841L25.0067 96.2077L29.6017 90.4821L35.3089 95.092L39.9039 89.3663L45.6109 93.9762L50.2059 88.2506L55.9129 92.8605L60.5219 87.1176L54.868 82.5509L59.4201 76.8788V76.8788Z" fill="white" stroke="#1B1B1B" stroke-width="0.7" stroke-linecap="round" stroke-linejoin="round"/>
<path d="M29.5976 90.4511L23.9609 85.8982L28.4991 80.2433L34.1358 84.7963L29.5976 90.4511V90.4511Z" fill="white" stroke="#1B1B1B" stroke-width="0.7" stroke-linecap="round" stroke-linejoin="round"/>
<path d="M39.9003 89.3353L34.2637 84.7824L38.8019 79.1274L44.4385 83.6804L39.9003 89.3353V89.3353Z" fill="white" stroke="#1B1B1B" stroke-width="0.7" stroke-linecap="round" stroke-linejoin="round"/>
<path d="M50.2022 88.2196L44.5654 83.6666L49.1038 78.0117L54.7404 82.5646L50.2022 88.2196V88.2196Z" fill="white" stroke="#1B1B1B" stroke-width="0.7" stroke-linecap="round" stroke-linejoin="round"/>
</g>
<path fill-rule="evenodd" clip-rule="evenodd" d="M34.075 77.6509C35.655 93.957 18.7461 100.542 26.0794 107.821C36.567 118.232 58.3369 110.204 56.5901 101.722C53.9413 88.86 44.8508 76.1683 44.8508 76.1683L34.075 77.6509Z" stroke="#1B1B1B" stroke-width="0.7" stroke-linecap="round" stroke-linejoin="round"/>
<path d="M30.9376 53.9867C29.6481 56.3546 35.6281 61.2745 35.6281 61.2745L28.9178 62.2417L26.1162 55.1369L30.9376 53.9867Z" fill="white"/>
<mask id="mask6_269_2127" style="mask-type:luminance" maskUnits="userSpaceOnUse" x="26" y="53" width="10" height="10">
<path fill-rule="evenodd" clip-rule="evenodd" d="M30.9376 53.9867C29.6481 56.3546 35.6281 61.2745 35.6281 61.2745L28.9178 62.2417L26.1162 55.1369L30.9376 53.9867Z" fill="white"/>
</mask>
<g mask="url(#mask6_269_2127)">
<path d="M33.9149 58.4238C33.9149 58.4238 31.417 59.2888 30.0575 56.1292C29.4235 54.6558 30.9751 54.2963 30.9751 54.2963L33.9149 58.4238Z" fill="white"/>
</g>
<path fill-rule="evenodd" clip-rule="evenodd" d="M30.9376 53.9867C29.6481 56.3546 35.6281 61.2745 35.6281 61.2745L28.9178 62.2417L26.1162 55.1369L30.9376 53.9867Z" stroke="#1B1B1B" stroke-width="0.7" stroke-linecap="round" stroke-linejoin="round"/>
<path d="M21.0102 55.1828C8.65918 54.5681 21.0225 66.5248 10.4731 70.5045C-0.0763555 74.4842 13.8407 87.5769 22.968 78.6748C32.0952 69.7727 18.2622 57.124 22.3247 56.8631C26.3871 56.6021 21.0102 55.1828 21.0102 55.1828Z" fill="#FFC100" stroke="#1B1B1B" stroke-width="0.7" stroke-linecap="round" stroke-linejoin="round"/>
<path d="M19.9717 54.6052C17.8625 55.0798 20.8233 58.1349 22.5166 57.0701C24.2098 56.0052 23.2078 56.0609 23.2078 56.0609L19.9717 54.6052Z" fill="#1B1B1B" stroke="#1B1B1B" stroke-width="0.7" stroke-linecap="round" stroke-linejoin="round"/>
<ellipse cx="27.3555" cy="46.7342" rx="5.05849" ry="3.66901" transform="rotate(-29.4711 27.3555 46.7342)" fill="#FFC100" stroke="#1B1B1B" stroke-width="0.7" stroke-linecap="round" stroke-linejoin="round"/>
<path d="M31.5255 54.6051L34.7881 61.9403L27.8141 62.69L23.8125 55.1071L31.5255 54.6051V54.6051Z" fill="white"/>
<mask id="mask7_269_2127" style="mask-type:luminance" maskUnits="userSpaceOnUse" x="23" y="54" width="12" height="9">
<path fill-rule="evenodd" clip-rule="evenodd" d="M31.5255 54.6051L34.7881 61.9403L27.8141 62.69L23.8125 55.1071L31.5255 54.6051V54.6051Z" fill="white"/>
</mask>
<g mask="url(#mask7_269_2127)">
<path d="M30.6661 55.8123C28.8457 56.9221 32.3085 58.474 34.2396 60.6041C36.1708 62.7341 32.4955 55.0927 32.4955 55.0927L29.3574 54.5243" fill="white"/>
</g>
<path fill-rule="evenodd" clip-rule="evenodd" d="M31.5255 54.6051L34.7881 61.9403L27.8141 62.69L23.8125 55.1071L31.5255 54.6051V54.6051Z" stroke="#1B1B1B" stroke-width="0.7" stroke-linecap="round" stroke-linejoin="round"/>
<path d="M30.6662 55.8124C36.47 55.0263 33.3822 46.9045 28.2309 45.5888C22.3438 44.0852 24.9837 50.9507 24.9837 50.9507L25.8296 52.4682L27.2914 55.0903" fill="white"/>
<path d="M30.6662 55.8124C36.47 55.0263 33.3822 46.9045 28.2309 45.5888C22.3438 44.0852 24.9837 50.9507 24.9837 50.9507L25.8296 52.4682L27.2914 55.0903" stroke="#1B1B1B" stroke-width="0.7" stroke-linecap="round" stroke-linejoin="round"/>
<path d="M24.8797 44.0625C24.3983 44.1744 23.937 44.3595 23.5118 44.6114C18.961 47.2885 17.2315 53.8063 21.4081 55.9178C26.2359 58.3584 25.4751 59.0543 25.4751 59.0543C25.4751 59.0543 30.8773 56.7036 27.0675 52.7357C31.0898 50.7354 28.9525 44.4371 28.9525 44.4371" fill="#FFC100"/>
<path d="M24.8797 44.0625C24.3983 44.1744 23.937 44.3595 23.5118 44.6114C18.961 47.2885 17.2315 53.8063 21.4081 55.9178C26.2359 58.3584 25.4751 59.0543 25.4751 59.0543C25.4751 59.0543 30.8773 56.7036 27.0675 52.7357C31.0898 50.7354 28.9525 44.4371 28.9525 44.4371" stroke="#1B1B1B" stroke-width="0.7" stroke-linecap="round" stroke-linejoin="round"/>
<path d="M28.7897 51.1816C24.4735 51.8182 24.6181 56.1861 29.1356 55.3175Z" fill="white"/>
<path d="M28.7897 51.1816C24.4735 51.8182 24.6181 56.1861 29.1356 55.3175" stroke="#1B1B1B" stroke-width="0.7" stroke-linecap="round" stroke-linejoin="round"/>
<path d="M31.7695 50.5611V50.5611C31.6624 50.6126 31.5392 50.6194 31.4272 50.5799C31.3151 50.5403 31.2233 50.4578 31.1722 50.3506L30.845 49.6667C30.738 49.4433 30.8318 49.1753 31.0549 49.0675V49.0675C31.162 49.016 31.2852 49.0092 31.3973 49.0487C31.5093 49.0882 31.6011 49.1707 31.6522 49.278L31.9794 49.9619C32.0865 50.1853 31.9926 50.4533 31.7695 50.5611V50.5611Z" fill="#1B1B1B"/>
<path d="M30.7665 47.5401C29.5214 48.0729 29.4926 48.7106 30.2926 48.4285C31.0926 48.1463 31.5799 47.192 30.7665 47.5401Z" fill="#1B1B1B"/>
<path d="M32.4209 49.2896C34.1651 49.5084 34.3563 51.1001 33.2723 51.2003Z" fill="white"/>
<path d="M32.4209 49.2896C34.1651 49.5084 34.3563 51.1001 33.2723 51.2003" stroke="#1B1B1B" stroke-width="0.7" stroke-linecap="round" stroke-linejoin="round"/>
<ellipse opacity="0.27" cx="29.759" cy="52.6757" rx="1.38206" ry="1.38653" fill="white"/>
<path d="M31.3086 52.0642C31.733 52.4837 32.3525 52.638 32.924 52.4666Z" fill="white"/>
<path d="M31.3086 52.0642C31.733 52.4837 32.3525 52.638 32.924 52.4666" stroke="#1B1B1B" stroke-width="0.7" stroke-linecap="round" stroke-linejoin="round"/>
<path d="M28.7674 62.8124C34.0831 66.3178 38.3915 61.7786 35.6284 59.8042C33.9964 58.638 26.8575 55.8797 26.1494 61.3989L27.7693 63.7405" fill="#1B1B1B"/>
<path d="M28.7674 62.8124C34.0831 66.3178 38.3915 61.7786 35.6284 59.8042C33.9964 58.638 26.8575 55.8797 26.1494 61.3989L27.7693 63.7405" stroke="#1B1B1B" stroke-width="0.7" stroke-linecap="round" stroke-linejoin="round"/>
<path d="M48.6057 80.565C52.234 78.8846 41.3383 59.8733 32.4237 59.0964C20.6886 58.0736 32.7827 80.2277 33.1851 80.6536C33.5874 81.0795 40.0223 84.5402 48.6057 80.565Z" fill="white"/>
<mask id="mask8_269_2127" style="mask-type:luminance" maskUnits="userSpaceOnUse" x="27" y="59" width="23" height="24">
<path fill-rule="evenodd" clip-rule="evenodd" d="M48.6057 80.565C52.234 78.8846 41.3383 59.8733 32.4237 59.0964C20.6886 58.0736 32.7827 80.2277 33.1851 80.6536C33.5874 81.0795 40.0223 84.5402 48.6057 80.565Z" fill="white"/>
</mask>
<g mask="url(#mask8_269_2127)">
<path d="M35.7997 63.0253L33.8518 63.1937C33.8518 63.1937 30.8961 69.171 42.7198 72.7622C49.9643 74.9626 51.3582 81.7091 54.5954 81.9012C63.2279 82.4137 45.8081 67.0262 45.8081 67.0262L35.7997 63.0253Z" fill="#FFC100"/>
<path d="M18.7373 74.271C28.7582 73.1421 30.8866 67.22 29.1878 59.6953C27.4891 52.1707 20.7331 63.2207 20.7331 63.2207L18.8033 65.1901L18.7373 74.271" fill="#FFC100"/>
</g>
<path fill-rule="evenodd" clip-rule="evenodd" d="M48.6057 80.565C52.234 78.8846 41.3383 59.8733 32.4237 59.0964C20.6886 58.0736 32.7827 80.2277 33.1851 80.6536C33.5874 81.0795 40.0223 84.5402 48.6057 80.565Z" stroke="#1B1B1B" stroke-width="0.7" stroke-linecap="round" stroke-linejoin="round"/>
<path d="M27.6025 32.1553L38.0402 20.575L80.4157 59.0165C81.2733 59.7957 81.3397 61.1216 80.5644 61.9827L77.2138 65.7001L72.9347 70.4477C72.563 70.8606 72.0422 71.1085 71.4873 71.1365C70.9325 71.1645 70.3893 70.9703 69.978 70.5968L27.6025 32.1553Z" fill="white"/>
<mask id="mask9_269_2127" style="mask-type:luminance" maskUnits="userSpaceOnUse" x="27" y="20" width="55" height="52">
<path fill-rule="evenodd" clip-rule="evenodd" d="M27.6025 32.1553L38.0402 20.575L80.4157 59.0165C81.2733 59.7957 81.3397 61.1216 80.5644 61.9827L77.2138 65.7001L72.9347 70.4477C72.563 70.8606 72.0422 71.1085 71.4873 71.1365C70.9325 71.1645 70.3893 70.9703 69.978 70.5968L27.6025 32.1553Z" fill="white"/>
</mask>
<g mask="url(#mask9_269_2127)">
<path d="M33.292 23.2482L34.9099 21.4531L73.0313 56.0356L71.4134 57.8306L33.292 23.2482V23.2482Z" fill="white" stroke="#1B1B1B" stroke-width="0.7" stroke-linecap="round" stroke-linejoin="round"/>
<path d="M30.3818 26.4768L31.9997 24.6818L70.1212 59.2643L68.5033 61.0593L30.3818 26.4768V26.4768Z" fill="white" stroke="#1B1B1B" stroke-width="0.7" stroke-linecap="round" stroke-linejoin="round"/>
<path d="M27.5898 29.5741L29.2077 27.7791L67.3292 62.3616L65.7113 64.1566L27.5898 29.5741V29.5741Z" fill="white" stroke="#1B1B1B" stroke-width="0.7" stroke-linecap="round" stroke-linejoin="round"/>
<path d="M63.7402 68.4191L77.6987 52.9325L83.7631 58.4339L69.8046 73.9205L63.7402 68.4191V68.4191Z" fill="white" stroke="#1B1B1B" stroke-width="0.7" stroke-linecap="round" stroke-linejoin="round"/>
<path d="M65.2541 67.0533L77.9663 52.9495L76.6018 51.7117L63.8896 65.8155L65.2541 67.0533V67.0533Z" fill="white" stroke="#1B1B1B" stroke-width="0.7" stroke-linecap="round" stroke-linejoin="round"/>
</g>
<path fill-rule="evenodd" clip-rule="evenodd" d="M27.6025 32.1553L38.0402 20.575L80.4157 59.0165C81.2733 59.7957 81.3397 61.1216 80.5644 61.9827L77.2138 65.7001L72.9347 70.4477C72.563 70.8606 72.0422 71.1085 71.4873 71.1365C70.9325 71.1645 70.3893 70.9703 69.978 70.5968L27.6025 32.1553Z" stroke="#1B1B1B" stroke-width="0.7" stroke-linecap="round" stroke-linejoin="round"/>
<path d="M23.111 17.5565V17.5565C23.486 17.1405 24.007 16.9244 24.4499 17.0011L38.0399 20.575L27.6023 32.1553L22.6945 18.9487C22.574 18.5142 22.7361 17.9725 23.111 17.5565Z" fill="white"/>
<mask id="mask10_269_2127" style="mask-type:luminance" maskUnits="userSpaceOnUse" x="22" y="16" width="17" height="17">
<path fill-rule="evenodd" clip-rule="evenodd" d="M23.111 17.5565V17.5565C23.486 17.1405 24.007 16.9244 24.4499 17.0011L38.0399 20.575L27.6023 32.1553L22.6945 18.9487C22.574 18.5142 22.7361 17.9725 23.111 17.5565Z" fill="white"/>
</mask>
<g mask="url(#mask10_269_2127)">
<path d="M24.3193 33.4626L38.9757 17.2017L41.2912 19.3022L26.6349 35.5631L24.3193 33.4626V33.4626Z" fill="white" stroke="#1B1B1B" stroke-width="0.7" stroke-linecap="round" stroke-linejoin="round"/>
<path d="M19.3012 22.0194C17.0176 19.9478 17.2137 15.997 19.7392 13.1951C22.2646 10.3931 26.1631 9.80109 28.4468 11.8727C30.7304 13.9443 28.8733 16.3883 26.3478 19.1902C23.8224 21.9921 21.5848 24.091 19.3012 22.0194Z" fill="#1B1B1B" stroke="#1B1B1B" stroke-width="0.7" stroke-linecap="round" stroke-linejoin="round"/>
</g>
<path fill-rule="evenodd" clip-rule="evenodd" d="M23.111 17.5565V17.5565C23.486 17.1405 24.007 16.9244 24.4499 17.0011L38.0399 20.575L27.6023 32.1553L22.6945 18.9487C22.574 18.5142 22.7361 17.9725 23.111 17.5565Z" stroke="#1B1B1B" stroke-width="0.7" stroke-linecap="round" stroke-linejoin="round"/>
<path d="M57.683 54.9961C57.683 54.9961 59.1468 48.6113 59.3657 45.9476C59.7728 40.9939 58.9194 39.2415 57.8092 40.1435C56.699 41.0456 57.3343 44.4245 56.4107 44.0544C55.4871 43.6843 55.6798 45.3095 56.6106 46.1569C57.5414 47.0042 54.8311 51.2924 54.8311 51.2924L57.683 54.9961Z" fill="white"/>
<mask id="mask11_269_2127" style="mask-type:luminance" maskUnits="userSpaceOnUse" x="54" y="39" width="6" height="16">
<path fill-rule="evenodd" clip-rule="evenodd" d="M57.682 54.9961C57.682 54.9961 59.1458 48.6113 59.3647 45.9476C59.7718 40.9939 58.9184 39.2415 57.8082 40.1435C56.698 41.0456 57.3333 44.4245 56.4097 44.0544C55.4861 43.6843 55.6789 45.3095 56.6096 46.1569C57.5404 47.0042 54.8301 51.2924 54.8301 51.2924L57.682 54.9961Z" fill="white"/>
</mask>
<g mask="url(#mask11_269_2127)">
<path d="M59.7028 52.4041C59.1911 49.4168 56.0332 48.8596 56.0332 48.8596L56.0351 52.3807L59.036 53.2675" fill="white"/>
</g>
<path fill-rule="evenodd" clip-rule="evenodd" d="M57.683 54.9961C57.683 54.9961 59.1468 48.6113 59.3657 45.9476C59.7728 40.9939 58.9194 39.2415 57.8092 40.1435C56.699 41.0456 57.3343 44.4245 56.4107 44.0544C55.4871 43.6843 55.6798 45.3095 56.6106 46.1569C57.5414 47.0042 54.8311 51.2924 54.8311 51.2924L57.683 54.9961Z" stroke="#1B1B1B" stroke-width="0.7" stroke-linecap="round" stroke-linejoin="round"/>
<path d="M32.7217 60.1014C37.8558 59.3133 50.4857 61.4873 50.4857 61.4873L55.6911 49.1475C58.8099 51.3365 58.547 52.2928 58.547 52.2928C58.547 52.2928 55.5197 70.7799 50.7539 70.5735C41.7919 70.1852 33.0784 68.2453 33.0784 68.2453" fill="white"/>
<mask id="mask12_269_2127" style="mask-type:luminance" maskUnits="userSpaceOnUse" x="32" y="49" width="27" height="22">
<path fill-rule="evenodd" clip-rule="evenodd" d="M32.7217 60.1014C37.8558 59.3133 50.4857 61.4873 50.4857 61.4873L55.6911 49.1475C58.8099 51.3365 58.547 52.2928 58.547 52.2928C58.547 52.2928 55.5197 70.7799 50.7539 70.5735C41.7919 70.1852 33.0784 68.2453 33.0784 68.2453" fill="white"/>
</mask>
<g mask="url(#mask12_269_2127)">
<ellipse cx="52.5915" cy="70.8305" rx="4.56322" ry="3.06863" fill="white" stroke="#1B1B1B" stroke-width="0.7" stroke-linecap="round" stroke-linejoin="round"/>
</g>
<path d="M32.7217 60.1014C37.8558 59.3133 50.4857 61.4873 50.4857 61.4873L55.6911 49.1475C58.8099 51.3365 58.547 52.2928 58.547 52.2928C58.547 52.2928 55.5197 70.7799 50.7539 70.5735C41.7919 70.1852 33.0784 68.2453 33.0784 68.2453" stroke="#1B1B1B" stroke-width="0.7" stroke-linecap="round" stroke-linejoin="round"/>
<path d="M40.1924 75.2003C43.7524 75.6385 44.7855 74.0422 44.7855 74.0422C44.7855 74.0422 50.0051 78.7196 44.6854 79.4948C40.2749 80.1376 40.1924 75.2003 40.1924 75.2003Z" fill="#1B1B1B" stroke="#1B1B1B" stroke-width="0.7" stroke-linecap="round" stroke-linejoin="round"/>
<path d="M54.5957 50.9823L55.5368 48.8982C55.5368 48.8982 59.3345 50.331 59.2696 52.3826L58.554 53.9867C58.554 53.9867 56.842 50.2707 54.5957 50.9823Z" fill="white" stroke="#1B1B1B" stroke-width="0.7" stroke-linecap="round" stroke-linejoin="round"/>
<path d="M166.269 112.227L148.969 111.162C146.321 110.999 144.599 108.294 145.566 105.814L147.704 100.332C148.119 99.2606 148.985 98.4265 150.071 98.0515C151.157 97.6765 152.353 97.7988 153.341 98.3857L167.231 106.649L166.269 112.227Z" fill="white"/>
<mask id="mask13_269_2127" style="mask-type:luminance" maskUnits="userSpaceOnUse" x="145" y="97" width="23" height="16">
<path fill-rule="evenodd" clip-rule="evenodd" d="M166.268 112.227L148.968 111.162C146.32 110.999 144.598 108.294 145.565 105.814L147.703 100.332C148.118 99.2605 148.984 98.4263 150.07 98.0514C151.156 97.6764 152.352 97.7987 153.34 98.3856L167.23 106.649L166.268 112.227Z" fill="white"/>
</mask>
<g mask="url(#mask13_269_2127)">
<path d="M163.932 102.186C163.505 106.584 161.688 108.657 158.731 106.762C155.773 104.867 159.228 108.657 162.079 109.909C164.93 111.16 148.006 112.227 147.702 100.332C147.5 92.4422 144.871 108.208 144.871 108.208L145.292 114.593L148.291 116.381L161.047 118.526L166.818 112.877V105.368L163.932 102.186Z" fill="white"/>
</g>
<path fill-rule="evenodd" clip-rule="evenodd" d="M166.269 112.227L148.969 111.162C146.321 110.999 144.599 108.294 145.566 105.814L147.704 100.332C148.119 99.2606 148.985 98.4265 150.071 98.0515C151.157 97.6765 152.353 97.7988 153.341 98.3857L167.231 106.649L166.269 112.227Z" stroke="#1B1B1B" stroke-width="0.7" stroke-linecap="round" stroke-linejoin="round"/>
<path d="M168.192 112.227L185.492 111.162C188.141 110.999 189.862 108.294 188.896 105.814L186.758 100.332C186.343 99.2606 185.477 98.4265 184.391 98.0515C183.305 97.6765 182.109 97.7988 181.121 98.3857L167.23 106.649L168.192 112.227Z" fill="white" stroke="#1B1B1B" stroke-width="0.7" stroke-linecap="round" stroke-linejoin="round"/>
<path d="M168.192 112.227L185.492 111.162C188.141 110.999 189.862 108.294 188.896 105.814L186.758 100.332C186.343 99.2606 185.477 98.4265 184.391 98.0515C183.305 97.6765 182.109 97.7988 181.121 98.3857L167.23 106.649L168.192 112.227Z" fill="white"/>
<mask id="mask14_269_2127" style="mask-type:luminance" maskUnits="userSpaceOnUse" x="167" y="97" width="23" height="16">
<path fill-rule="evenodd" clip-rule="evenodd" d="M168.192 112.227L185.492 111.162C188.141 110.999 189.862 108.294 188.896 105.814L186.758 100.332C186.343 99.2605 185.477 98.4263 184.391 98.0514C183.305 97.6764 182.109 97.7987 181.121 98.3856L167.23 106.649L168.192 112.227Z" fill="white"/>
</mask>
<g mask="url(#mask14_269_2127)">
<path d="M170.528 102.186C170.955 106.584 175.797 112.617 178.754 110.722C181.711 108.827 175.549 114.57 172.698 115.821C169.847 117.073 186.454 112.227 186.758 100.332C186.96 92.4422 189.589 108.208 189.589 108.208L189.168 114.593L186.169 116.381L173.413 118.526L167.642 112.877V105.368L170.528 102.186Z" fill="white"/>
</g>
<path fill-rule="evenodd" clip-rule="evenodd" d="M168.192 112.227L185.492 111.162C188.141 110.999 189.862 108.294 188.896 105.814L186.758 100.332C186.343 99.2606 185.477 98.4265 184.391 98.0515C183.305 97.6765 182.109 97.7988 181.121 98.3857L167.23 106.649L168.192 112.227Z" stroke="#1B1B1B" stroke-width="0.7" stroke-linecap="round" stroke-linejoin="round"/>
<rect x="163.205" y="103.725" width="8.05209" height="8.96644" rx="4.02604" fill="white" stroke="#1B1B1B" stroke-width="0.7" stroke-linecap="round" stroke-linejoin="round"/>
<path d="M167.675 159.107H140.474C138.085 159.103 136.151 157.162 136.155 154.773V117.774H167.676L167.675 159.107Z" fill="#FFC100"/>
<path fill-rule="evenodd" clip-rule="evenodd" d="M167.675 159.107H140.474C138.085 159.103 136.151 157.162 136.155 154.773V117.774H167.676L167.675 159.107Z" stroke="#1B1B1B" stroke-width="0.7" stroke-linecap="round" stroke-linejoin="round"/>
<path d="M166.227 159.107H193.428C195.817 159.103 197.751 157.162 197.747 154.773V117.774H166.227L166.227 159.107Z" fill="#FFC100"/>
<path fill-rule="evenodd" clip-rule="evenodd" d="M166.227 159.107H193.428C195.817 159.103 197.751 157.162 197.747 154.773V117.774H166.227L166.227 159.107Z" stroke="#1B1B1B" stroke-width="0.7" stroke-linecap="round" stroke-linejoin="round"/>
<path d="M154.755 154.773V117.774H148.662V154.773C148.658 157.162 150.592 159.103 152.981 159.107H159.073C156.684 159.103 154.75 157.162 154.755 154.773V154.773Z" fill="white" stroke="#1B1B1B" stroke-width="0.7" stroke-linecap="round" stroke-linejoin="round"/>
<path d="M178.754 117.774V154.773C178.759 157.162 176.825 159.103 174.436 159.107H181.069C183.458 159.103 185.392 157.162 185.387 154.773V117.774H178.754Z" fill="white" stroke="#1B1B1B" stroke-width="0.7" stroke-linecap="round" stroke-linejoin="round"/>
<rect opacity="0.06" x="136.155" y="115.919" width="30.0706" height="9.18638" fill="black"/>
<rect opacity="0.06" x="166.227" y="115.919" width="31.5202" height="9.18638" fill="black"/>
<path d="M168.378 110.766H135.599C134.409 110.768 133.446 111.735 133.448 112.925V119.548C133.447 120.305 134.059 120.919 134.816 120.921H166.227V112.925C166.225 111.735 167.188 110.768 168.378 110.766Z" fill="#FFC100" stroke="#1B1B1B" stroke-width="0.7" stroke-linecap="round" stroke-linejoin="round"/>
<path d="M198.849 110.766H168.378C167.187 110.768 166.224 111.735 166.227 112.925V120.921H199.632C200.389 120.919 201.002 120.305 201 119.548V112.925C201.002 111.735 200.039 110.768 198.849 110.766Z" fill="#FFC100" stroke="#1B1B1B" stroke-width="0.7" stroke-linecap="round" stroke-linejoin="round"/>
<path d="M185.492 110.722H178.754C179.947 110.727 180.91 111.698 180.905 112.89V120.92H187.643V112.89C187.647 111.698 186.684 110.727 185.492 110.722V110.722Z" fill="white" stroke="#1B1B1B" stroke-width="0.7" stroke-linecap="round" stroke-linejoin="round"/>
<path d="M154.838 110.766H148.1C146.912 110.766 145.949 111.747 145.949 112.957V121.071H152.687V112.957C152.687 111.747 153.65 110.766 154.838 110.766Z" fill="white" stroke="#1B1B1B" stroke-width="0.7" stroke-linecap="round" stroke-linejoin="round"/>
<path d="M166.524 110.766H159.787C158.597 110.768 157.634 111.735 157.636 112.925V127.615L160.739 124.111L164.373 127.615V112.925C164.372 112.353 164.599 111.805 165.002 111.4C165.405 110.995 165.953 110.767 166.524 110.766V110.766Z" fill="white" stroke="#1B1B1B" stroke-width="0.7" stroke-linecap="round" stroke-linejoin="round"/>
<path d="M143.828 113.436L141.752 115.605" stroke="#1B1B1B" stroke-width="0.7" stroke-linecap="round" stroke-linejoin="round"/>
<path d="M183.047 148.902C182.094 149.869 181.045 150.736 179.916 151.489" stroke="#1B1B1B" stroke-width="0.7" stroke-linecap="round" stroke-linejoin="round"/>
<path d="M157.556 59.5285L157.682 59.6058L157.501 59.2308L156.22 52.3393C155.702 49.5506 152.547 48.1607 150.15 49.6648L144.493 53.2138C143.831 53.6185 143.312 54.2201 143.009 54.9343C142.281 56.7118 141.833 60.0731 147.32 62.2277C155.066 65.2695 157.928 61.5292 157.928 61.5292L157.556 59.5285Z" fill="#1B1B1B" stroke="#1B1B1B" stroke-width="0.7" stroke-linecap="round" stroke-linejoin="round"/>
<path d="M161.883 84.0904L145.106 83.1554C145.106 83.1554 142.089 80.679 140.912 81.2854C139.141 82.1984 136.256 83.9476 134.917 84.428C134.917 84.428 134.863 86.0643 138.748 84.2982C138.748 84.2982 139.837 86.6746 144.071 86.1292L166.13 90.064L161.883 84.0904Z" fill="white" stroke="#1B1B1B" stroke-width="0.7" stroke-linecap="round" stroke-linejoin="round"/>
<path d="M148.515 83.3454C148.515 83.3454 148.215 86.8682 150.977 88.9355L165.996 90.1996C169.301 90.6892 171.977 87.5413 170.974 84.3448L165.66 67.4142C165.173 64.836 162.66 63.093 159.976 63.4712V63.4712C157.025 63.8869 155.091 66.6738 155.814 69.4687L159.195 82.5321L148.515 83.3454Z" fill="white"/>
<path fill-rule="evenodd" clip-rule="evenodd" d="M148.515 83.3454C148.515 83.3454 148.215 86.8682 150.977 88.9355L165.996 90.1996C169.301 90.6892 171.977 87.5413 170.974 84.3448L165.66 67.4142C165.173 64.836 162.66 63.093 159.976 63.4712V63.4712C157.025 63.8869 155.091 66.6738 155.814 69.4687L159.195 82.5321L148.515 83.3454Z" stroke="#1B1B1B" stroke-width="0.7" stroke-linecap="round" stroke-linejoin="round"/>
<path d="M142.693 112.229L151.748 123.548L156.769 121.441L148.73 109.535L146.306 113.441" fill="white"/>
<mask id="mask15_269_2127" style="mask-type:luminance" maskUnits="userSpaceOnUse" x="142" y="109" width="15" height="15">
<path fill-rule="evenodd" clip-rule="evenodd" d="M142.693 112.229L151.748 123.548L156.769 121.441L148.73 109.535L146.306 113.441" fill="white"/>
</mask>
<g mask="url(#mask15_269_2127)">
<path d="M153.126 114.488C151.503 119.006 148.737 116.642 148.941 120.11C149.146 123.577 144.518 117.378 144.518 117.378L146.004 116.484L152.315 114.107" fill="white"/>
</g>
<path d="M142.693 112.229L151.748 123.548L156.769 121.441L148.73 109.535L146.306 113.441" stroke="#1B1B1B" stroke-width="0.7" stroke-linecap="round" stroke-linejoin="round"/>
<path d="M145.385 132.992C145.385 132.992 142.347 129.509 147.642 127.342C152.755 125.25 149.666 122.114 149.666 122.114L155.939 120.075L158.555 123.057C158.917 123.469 158.787 124.008 158.239 124.376L145.385 132.992Z" fill="#1B1B1B" stroke="#1B1B1B" stroke-width="0.7" stroke-linecap="round" stroke-linejoin="round"/>
<path d="M144.379 117.582C144.379 117.582 150.796 117.21 152.97 114.525L145.053 102.187L163.246 109.12C164.621 105.905 155.276 100.396 165.572 110.004L167.125 105.398C167.33 105.476 167.968 106.975 168.174 106.898C170.234 106.119 168.106 106.489 168.795 104.172L172.22 98.7993V98.7993L169.818 98.0423L141.841 91.6986C138.264 90.4968 134.258 91.2445 132.048 93.5266V93.5266C130.082 95.5572 129.947 98.3892 131.706 100.728L144.379 117.582Z" fill="#D1D1D1" stroke="#1B1B1B" stroke-width="0.7" stroke-linecap="round" stroke-linejoin="round"/>
<path d="M141.791 114.788C141.791 114.788 143.306 117.907 144.05 118.605C144.05 118.605 150.939 119.249 153.016 114.355L150.913 111.187C150.913 111.187 148.344 116.241 141.791 114.788Z" fill="white" stroke="#1B1B1B" stroke-width="0.7" stroke-linecap="round" stroke-linejoin="round"/>
<path d="M137.325 115.002L147.784 128.768L152.486 124.991L142.957 110.243L141.065 115.997" fill="white"/>
<mask id="mask16_269_2127" style="mask-type:luminance" maskUnits="userSpaceOnUse" x="137" y="110" width="16" height="19">
<path fill-rule="evenodd" clip-rule="evenodd" d="M137.325 115.002L147.784 128.768L152.486 124.991L142.957 110.243L141.065 115.997" fill="white"/>
</mask>
<g mask="url(#mask16_269_2127)">
<path d="M147.814 116.862C146.266 120.836 142.44 120.941 143.986 124.365C145.532 127.789 139.929 124.514 139.929 124.514L140.126 119.285L145.166 118.177" fill="white"/>
</g>
<path d="M137.325 115.002L147.784 128.768L152.486 124.991L142.957 110.243L141.065 115.997" stroke="#1B1B1B" stroke-width="0.7" stroke-linecap="round" stroke-linejoin="round"/>
<path d="M142.713 142.772C142.713 142.772 139.245 138.583 144.21 134.675C149.005 130.902 145.532 127.194 145.532 127.194L151.483 123.283L154.467 126.867C154.879 127.362 154.822 128.12 154.326 128.719L142.713 142.772Z" fill="#1B1B1B" stroke="#1B1B1B" stroke-width="0.7" stroke-linecap="round" stroke-linejoin="round"/>
<path d="M139.697 121.982C139.697 121.982 146.01 120.315 147.813 116.266L138.348 100.908L164.164 110.736C165.856 111.38 167.71 111.465 169.454 110.978V110.978C172.784 110.044 175.218 107.188 175.611 103.752L176.559 95.5467L164.835 91.379L162.355 90.7836L133.79 87.2158C130.086 86.2279 126.213 87.9709 124.321 91.4768V91.4768C122.638 94.5963 122.876 98.4749 124.926 101.339L139.697 121.982Z" fill="#D1D1D1"/>
<path fill-rule="evenodd" clip-rule="evenodd" d="M139.697 121.982C139.697 121.982 146.01 120.315 147.813 116.266L138.348 100.908L164.164 110.736C165.856 111.38 167.71 111.465 169.454 110.978V110.978C172.784 110.044 175.218 107.188 175.611 103.752L176.559 95.5467L164.835 91.379L162.355 90.7836L133.79 87.2158C130.086 86.2279 126.213 87.9709 124.321 91.4768V91.4768C122.638 94.5963 122.876 98.4749 124.926 101.339L139.697 121.982Z" stroke="#1B1B1B" stroke-width="0.7" stroke-linecap="round" stroke-linejoin="round"/>
<path d="M154.922 57.9399L162.253 62.7384L159.091 70.06L149.646 62.2649L154.922 57.9399V57.9399Z" fill="white"/>
<mask id="mask17_269_2127" style="mask-type:luminance" maskUnits="userSpaceOnUse" x="149" y="57" width="14" height="14">
<path fill-rule="evenodd" clip-rule="evenodd" d="M154.923 57.9399L162.254 62.7384L159.092 70.06L149.646 62.2649L154.923 57.9399V57.9399Z" fill="white"/>
</mask>
<g mask="url(#mask17_269_2127)">
<path d="M154.139 61.123C154.354 64.6588 153.796 65.3789 154.791 66.8427C155.785 68.3066 151.784 66.7787 151.784 66.7787L149.915 63.9306L153.597 60.1361" fill="white"/>
</g>
<path fill-rule="evenodd" clip-rule="evenodd" d="M154.922 57.9399L162.253 62.7384L159.091 70.06L149.646 62.2649L154.922 57.9399V57.9399Z" stroke="#1B1B1B" stroke-width="0.7" stroke-linecap="round" stroke-linejoin="round"/>
<path d="M154.354 59.8715L153.606 58.3135C151.392 58.9124 146.911 59.4961 145.203 55.1344C143.918 57.495 146.178 64.225 148.818 65.6063C149.956 66.2016 152.835 64.2364 154.251 62.8755" fill="white"/>
<path d="M154.354 59.8715L153.606 58.3135C151.392 58.9124 146.911 59.4961 145.203 55.1344C143.918 57.495 146.178 64.225 148.818 65.6063C149.956 66.2016 152.835 64.2364 154.251 62.8755" stroke="#1B1B1B" stroke-width="0.7" stroke-linecap="round" stroke-linejoin="round"/>
<path d="M151.957 58.924C153.028 54.2567 157.272 57.347 154.049 60.1362Z" fill="white"/>
<path d="M151.957 58.924C153.028 54.2567 157.272 57.347 154.049 60.1362" stroke="#1B1B1B" stroke-width="0.7" stroke-linecap="round" stroke-linejoin="round"/>
<path d="M160.777 90.8351C160.777 90.8351 171.689 96.0985 179.002 95.8908C179.002 95.8908 183.59 67.0011 160.4 61.123L155.077 66.1097C155.077 66.1097 152.604 74.1091 160.777 90.8351Z" fill="#FFC100"/>
<path fill-rule="evenodd" clip-rule="evenodd" d="M160.777 90.8351C160.777 90.8351 171.689 96.0985 179.002 95.8908C179.002 95.8908 183.59 67.0011 160.4 61.123L155.077 66.1097C155.077 66.1097 152.604 74.1091 160.777 90.8351Z" stroke="#1B1B1B" stroke-width="0.7" stroke-linecap="round" stroke-linejoin="round"/>
<path d="M152.811 89.8155L132.871 87.4651L124.246 66.9615L126.592 67.212L134.306 85.5488L153.052 87.7585L152.811 89.8155V89.8155Z" fill="white"/>
<path fill-rule="evenodd" clip-rule="evenodd" d="M152.811 89.8155L132.871 87.4651L124.246 66.9615L126.592 67.212L134.306 85.5488L153.052 87.7585L152.811 89.8155V89.8155Z" stroke="#1B1B1B" stroke-width="0.7" stroke-linecap="round" stroke-linejoin="round"/>
<path d="M164.29 84.9703L147.514 84.0353C147.514 84.0353 144.496 81.5589 143.32 82.1653C141.549 83.0783 138.663 84.8275 137.324 85.3079C137.324 85.3079 137.27 86.9442 141.155 85.1781C141.155 85.1781 142.244 87.5545 146.479 87.0091L168.538 90.9439L164.29 84.9703Z" fill="white"/>
<mask id="mask18_269_2127" style="mask-type:luminance" maskUnits="userSpaceOnUse" x="137" y="82" width="32" height="9">
<path fill-rule="evenodd" clip-rule="evenodd" d="M164.291 84.9704L147.515 84.0354C147.515 84.0354 144.497 81.559 143.321 82.1654C141.55 83.0785 138.664 84.8276 137.325 85.308C137.325 85.308 137.271 86.9443 141.156 85.1782C141.156 85.1782 142.245 87.5546 146.48 87.0092L168.539 90.944L164.291 84.9704Z" fill="white"/>
</mask>
<g mask="url(#mask18_269_2127)">
<path d="M151.87 83.3752C150.177 83.1475 151.355 86.7509 150.591 87.7426C149.827 88.7343 152.551 88.4541 152.551 88.4541L152.044 85.0215" fill="white"/>
<path d="M149.883 84.1675C152.607 84.3076 148.22 87.6037 149.504 89.0398C150.789 90.4758 153.052 87.7586 153.052 87.7586L151.912 84.1501" fill="white"/>
</g>
<path fill-rule="evenodd" clip-rule="evenodd" d="M164.29 84.9703L147.514 84.0353C147.514 84.0353 144.496 81.5589 143.32 82.1653C141.549 83.0783 138.663 84.8275 137.324 85.3079C137.324 85.3079 137.27 86.9442 141.155 85.1781C141.155 85.1781 142.244 87.5545 146.479 87.0091L168.538 90.9439L164.29 84.9703Z" stroke="#1B1B1B" stroke-width="0.7" stroke-linecap="round" stroke-linejoin="round"/>
<path d="M158.846 72.7603L161.602 83.4121L150.923 84.2253C150.923 84.2253 150.29 88.3735 153.052 90.4407L168.404 91.0795C171.708 91.5692 174.385 88.4213 173.381 85.2248L168.067 68.2942" fill="white"/>
<mask id="mask19_269_2127" style="mask-type:luminance" maskUnits="userSpaceOnUse" x="150" y="68" width="24" height="24">
<path fill-rule="evenodd" clip-rule="evenodd" d="M158.846 72.7603L161.602 83.4121L150.923 84.2253C150.923 84.2253 150.29 88.3735 153.052 90.4407L168.404 91.0795C171.708 91.5692 174.385 88.4213 173.381 85.2248L168.067 68.2942" fill="white"/>
</mask>
<g mask="url(#mask19_269_2127)">
<path d="M176.171 74.4685L177.491 77.1528L180.444 77.5832L178.307 79.6727L178.812 82.623L176.171 81.23L173.53 82.623L174.034 79.6727L171.897 77.5832L174.85 77.1528L176.171 74.4685V74.4685Z" fill="white" stroke="#1B1B1B" stroke-width="0.7" stroke-linecap="round" stroke-linejoin="round"/>
</g>
<path d="M158.846 72.7603L161.602 83.4121L150.923 84.2253C150.923 84.2253 150.29 88.3735 153.052 90.4407L168.404 91.0795C171.708 91.5692 174.385 88.4213 173.381 85.2248L168.067 68.2942" stroke="#1B1B1B" stroke-width="0.7" stroke-linecap="round" stroke-linejoin="round"/>
<path d="M158.794 59.137C158.794 59.137 155.373 64.1795 155.077 66.1097L154.726 67.666L160.4 61.123C160.4 61.123 160.222 59.5819 158.794 59.137Z" fill="white" stroke="#1B1B1B" stroke-width="0.7" stroke-linecap="round" stroke-linejoin="round"/>
<path d="M136.825 118.605C136.825 118.605 138.846 121.421 139.697 121.982C139.697 121.982 146.595 121.443 147.814 116.266L145.864 113.102C145.864 113.102 143.529 118.92 136.825 118.605Z" fill="white" stroke="#1B1B1B" stroke-width="0.7" stroke-linecap="round" stroke-linejoin="round"/>
<ellipse cx="155.691" cy="68.7768" rx="0.258872" ry="0.259711" fill="white" stroke="#1B1B1B" stroke-width="0.7" stroke-linecap="round" stroke-linejoin="round"/>
<ellipse cx="156.347" cy="74.7281" rx="0.258872" ry="0.259711" fill="white" stroke="#1B1B1B" stroke-width="0.7" stroke-linecap="round" stroke-linejoin="round"/>
<ellipse cx="157.564" cy="79.9719" rx="0.258872" ry="0.259711" fill="white" stroke="#1B1B1B" stroke-width="0.7" stroke-linecap="round" stroke-linejoin="round"/>
<path d="M147.806 61.0502V61.0502C148.064 60.9857 148.222 60.7241 148.158 60.4654L147.963 59.6733C147.933 59.5491 147.854 59.442 147.745 59.3758C147.635 59.3095 147.504 59.2894 147.38 59.32V59.32C147.122 59.3845 146.964 59.6461 147.028 59.9047L147.223 60.6969C147.253 60.8211 147.332 60.9281 147.441 60.9944C147.55 61.0607 147.681 61.0808 147.806 61.0502Z" fill="#1B1B1B"/>
<path d="M146.578 57.8539C147.975 57.4415 148.434 57.951 147.577 58.2659C146.721 58.5808 145.666 58.1234 146.578 57.8539Z" fill="#1B1B1B"/>
<path d="M146.344 60.5425C144.895 62.0747 145.978 63.7351 147.066 63.0077Z" fill="white"/>
<path d="M146.344 60.5425C144.895 62.0747 145.978 63.7351 147.066 63.0077" stroke="#1B1B1B" stroke-width="0.7" stroke-linecap="round" stroke-linejoin="round"/>
<ellipse opacity="0.27" cx="149.57" cy="60.8931" rx="1.09709" ry="0.810783" transform="rotate(-23.7824 149.57 60.8931)" fill="white"/>
<path d="M149.395 62.1423C149.208 62.7568 148.7 63.2203 148.071 63.3515Z" fill="white"/>
<path d="M149.395 62.1423C149.208 62.7568 148.7 63.2203 148.071 63.3515" stroke="#1B1B1B" stroke-width="0.7" stroke-linecap="round" stroke-linejoin="round"/>
<path d="M153.139 58.4324C153.161 58.2455 153.294 58.0904 153.475 58.0401C153.656 57.9898 153.85 58.0541 153.965 58.203C154.081 58.3518 154.094 58.5556 154 58.7186" stroke="#1B1B1B" stroke-width="0.7" stroke-linecap="round" stroke-linejoin="round"/>
<path d="M149.561 53.5042C149.63 54.0309 149.911 54.5068 150.338 54.8228" stroke="#1B1B1B" stroke-width="0.7" stroke-linecap="round" stroke-linejoin="round"/>
<path d="M164.587 75.6243L165.215 76.2547" stroke="#1B1B1B" stroke-width="0.7" stroke-linecap="round" stroke-linejoin="round"/>
<path d="M161.442 83.3065C161.914 83.3866 162.356 83.5922 162.721 83.9018" stroke="#1B1B1B" stroke-width="0.7" stroke-linecap="round" stroke-linejoin="round"/>
<path d="M138.685 101.195L137.438 100.132" stroke="#1B1B1B" stroke-width="0.7" stroke-linecap="round" stroke-linejoin="round"/>
<path d="M153.609 94.8578C153.416 95.9777 153.475 97.1267 153.784 98.2205" stroke="#1B1B1B" stroke-width="0.7" stroke-linecap="round" stroke-linejoin="round"/>
<path d="M144.282 128.989C144.899 129.578 145.744 129.868 146.593 129.78L142.658 132.201" stroke="#1B1B1B" stroke-width="0.7" stroke-linecap="round" stroke-linejoin="round"/>
</svg>
