<svg id="logo" data-name="u-universe" xmlns="http://www.w3.org/2000/svg" viewBox="0 0 249.91 233.8">
  <defs>
    <style>
      .cls-1 {fill:#ffbf00;}
      .cls-2 {fill:#fff;}
      .cls-3 {fill:#d03f2c;}
    </style>
  </defs>
  <path class="cls-2" d="M115.12,165.07a36.52,36.52,0,0,1-29.3-35.75V92.23H74v37.09a48.36,48.36,0,0,0,38.76,47.33,6.08,6.08,0,0,0,1.19.12,6,6,0,0,0,3.79-1.35,5.9,5.9,0,0,0-2.62-10.35Z"/>
  <path class="cls-3" d="M168.26,92.23v37.09A36.52,36.52,0,0,1,139,165.07a5.91,5.91,0,1,0,2.35,11.58,48.36,48.36,0,0,0,38.77-47.33V92.23Z"/>
  <path class="cls-1" d="M145.19,62.62h-5.75v3.63h6.79v2.81H135.79V53.9h10.46v2.82h-6.81v3.2h5.75Z"/>
  <path d="M132.52,54.83H117a.51,.51,0,0,1-.5-.53.51,.51,0,0,1,.5-.52h15.49a.51,.51,0,0,1,.51.52A.52,.52,0,0,1,132.52,54.83Z"/>
  <path d="M165.65,69.18h-16a.53,.53,0,0,1,0-1.05h16a.53,.53,0,0,1,0,1.05Z"/>
  <circle class="cls-3" cx="141.02" cy="61.71" r="13.34" transform="translate(-2.33 117.79) rotate(-45)"/>
  <path class="cls-1" d="M145.19,62.62h-5.75v3.63h6.79v2.81H135.79V53.9h10.46v2.82h-6.81v3.2h5.75Z"/>
  <circle class="cls-2" cx="174.26" cy="61.71" r="13.34" transform="translate(7.4 141.3) rotate(-45)"/>
  <path class="cls-1" d="M178.43,62.62h-5.75v3.63h6.79v2.81H169V53.9h10.46v2.82h-6.81v3.2h5.75Z"/>
  <path d="M94.45,61.71a13.34,13.34,0,1,1,13.33,13.34A13.33,13.33,0,0,1,94.45,61.71Z"/>
  <path class="cls-2" d="M108.41,68.71a6.94,6.94,0,0,1-5-1.85A6.39,6.39,0,0,1,101.46,62v-.35a8.35,8.35,0,0,1,.77-3.66,5.66,5.66,0,0,1,2.24-2.45,6.75,6.75,0,0,1,3.49-.87,5.85,5.85,0,0,1,4.5,1.77,6.93,6.93,0,0,1,1.64,4.92V63h-8.36a3,3,0,0,0,1,1.78,2.94,2.94,0,0,0,2,.65,3.79,3.79,0,0,0,3.12-1.4l1.92,2.27a5.29,5.29,0,0,1-2.22,1.73A7.56,7.56,0,0,1,108.41,68.71ZM107.94,58c-1.23,0-2,.81-2.2,2.44H110v-.32a2.12,2.12,0,0,0-.52-1.57A2,2,0,0,0,107.94,58Z"/>
</svg>



