<svg width="70" height="70" viewBox="0 0 50 50" fill="white" xmlns="http://www.w3.org/2000/svg">
<path d="M4.76192 25C4.75644 20.072 6.4839 15.3154 9.61298 11.6425C12.7421 7.96953 17.0524 5.63892 21.7174 5.09764C26.3823 4.55636 31.0733 5.84252 34.8907 8.70944C38.708 11.5763 41.383 15.8222 42.4024 20.6325C43.7334 21.1971 44.9031 22.1127 45.7986 23.2908C46.6941 24.4689 47.285 25.8696 47.5143 27.3575C47.5857 26.5825 47.619 25.795 47.619 25C47.619 11.1925 36.9595 0 23.8095 0C10.6595 0 1.85205e-05 11.1925 1.85205e-05 25C-0.00388287 28.2799 0.608633 31.5283 1.80247 34.5591C2.9963 37.59 4.74799 40.3437 6.95716 42.6625C7.40329 43.1319 8.00875 43.3961 8.64035 43.3968C9.27194 43.3975 9.87794 43.1347 10.325 42.6662C10.7721 42.1978 11.0236 41.5621 11.0243 40.8989C11.025 40.2357 10.7747 39.5994 10.3286 39.13C8.56049 37.2755 7.15858 35.0727 6.2033 32.6479C5.24803 30.2231 4.7582 27.6241 4.76192 25ZM37.3571 20.235C36.6718 18.0916 35.5338 16.1387 34.0283 14.5221C32.5228 12.9056 30.6888 11.6673 28.6633 10.8999C26.6378 10.1325 24.4733 9.85577 22.3317 10.0904C20.19 10.3251 18.1265 11.0651 16.2956 12.2551C14.4647 13.4451 12.9136 15.0543 11.7585 16.9623C10.6033 18.8704 9.87382 21.028 9.62466 23.2738C9.3755 25.5196 9.61308 27.7954 10.3196 29.9312C11.0262 32.067 12.1834 34.0075 13.7048 35.6075C13.926 35.8399 14.1886 36.0244 14.4777 36.1502C14.7668 36.2761 15.0767 36.3409 15.3896 36.341C15.7026 36.3411 16.0125 36.2765 16.3017 36.1509C16.5909 36.0252 16.8536 35.841 17.075 35.6087C17.2964 35.3765 17.472 35.1007 17.5919 34.7971C17.7117 34.4936 17.7735 34.1682 17.7736 33.8396C17.7737 33.511 17.7122 33.1856 17.5925 32.882C17.4729 32.5784 17.2974 32.3024 17.0762 32.07C16.0302 30.9712 15.2424 29.6317 14.7753 28.1575C14.3082 26.6834 14.1746 25.1153 14.3851 23.5776C14.5957 22.0398 15.1445 20.5747 15.9882 19.2984C16.8319 18.0222 17.9471 16.9699 19.2455 16.225C20.544 15.4801 21.9898 15.0631 23.4684 15.007C24.9471 14.951 26.4178 15.2574 27.764 15.9021C29.1102 16.5467 30.2948 17.5118 31.2239 18.7209C32.153 19.93 32.8011 21.3497 33.1167 22.8675C34.2456 21.5606 35.7223 20.6428 37.3571 20.235ZM19.0476 25C19.0476 23.6739 19.5493 22.4021 20.4424 21.4645C21.3354 20.5268 22.5466 20 23.8095 20C25.0725 20 26.2837 20.5268 27.1767 21.4645C28.0697 22.4021 28.5714 23.6739 28.5714 25C28.5714 26.3261 28.0697 27.5979 27.1767 28.5355C26.2837 29.4732 25.0725 30 23.8095 30C22.5466 30 21.3354 29.4732 20.4424 28.5355C19.5493 27.5979 19.0476 26.3261 19.0476 25ZM45.2381 28.75C45.2381 30.4076 44.611 31.9973 43.4947 33.1694C42.3784 34.3415 40.8644 35 39.2857 35C37.707 35 36.193 34.3415 35.0767 33.1694C33.9605 31.9973 33.3333 30.4076 33.3333 28.75C33.3333 27.0924 33.9605 25.5027 35.0767 24.3306C36.193 23.1585 37.707 22.5 39.2857 22.5C40.8644 22.5 42.3784 23.1585 43.4947 24.3306C44.611 25.5027 45.2381 27.0924 45.2381 28.75ZM50 42.1875C50 46.0775 46.9381 50 39.2857 50C31.6333 50 28.5714 46.0925 28.5714 42.1875V41.93C28.5714 39.48 30.4619 37.5 32.7929 37.5H45.7786C48.1119 37.5 50 39.4825 50 41.93V42.1875Z" fill="black"/>
</svg>
