<svg width="70" height="70" viewBox="0 0 50 50" fill="none" xmlns="http://www.w3.org/2000/svg">
<path d="M48 19.6607C48.001 18.929 47.833 18.2101 47.5132 17.577C47.1933 16.944 46.733 16.4193 46.179 16.0565L26.3829 2.5829C25.8124 2.20115 25.1637 2 24.5031 2C23.8426 2 23.1939 2.20115 22.6234 2.5829L2.7979 16.0565C2.25005 16.4293 1.7962 16.9592 1.48098 17.594C1.16576 18.2289 1 18.9469 1 19.6775C1 20.4081 1.16576 21.1261 1.48098 21.761C1.7962 22.3958 2.25005 22.9257 2.7979 23.2985L8.43715 27.0711V36.5363C8.44054 37.2761 8.60984 38.0024 8.92875 38.6454C9.24767 39.2884 9.70548 39.8265 10.2582 40.2079L22.7409 48.4605C23.2982 48.8143 23.9248 49 24.5619 49C25.1989 49 25.8255 48.8143 26.3829 48.4605L38.8656 40.2079C39.4183 39.8265 39.8761 39.2884 40.195 38.6454C40.5139 38.0024 40.6832 37.2761 40.6866 36.5363V26.9701L44.3286 24.5112V33.6732H48V19.6607ZM37.0446 36.5027L24.5031 44.7889L12.1085 36.5363V29.5638L22.6234 36.7384C23.1959 37.1136 23.8438 37.3109 24.5031 37.3109C25.1625 37.3109 25.8104 37.1136 26.3829 36.7384L37.0152 29.4627L37.0446 36.5027ZM24.5031 33.1006L4.67765 19.627L24.5031 6.11972L44.3286 19.5933L24.5031 33.1006Z" fill="black" stroke="black"/>
</svg>
