<svg width="70" height="70" viewBox="0 0 50 50" fill="none" xmlns="http://www.w3.org/2000/svg">
<path d="M36.3684 5.8C35.6984 5.8 35.0558 5.54714 34.582 5.09706C34.1083 4.64697 33.8421 4.03652 33.8421 3.4C33.8421 2.76348 34.1083 2.15303 34.582 1.70294C35.0558 1.25286 35.6984 1 36.3684 1H46.4737C47.1437 1 47.7863 1.25286 48.2601 1.70294C48.7338 2.15303 49 2.76348 49 3.4V13C49 13.6365 48.7338 14.247 48.2601 14.6971C47.7863 15.1471 47.1437 15.4 46.4737 15.4C45.8037 15.4 45.1611 15.1471 44.6873 14.6971C44.2135 14.247 43.9474 13.6365 43.9474 13V9.1936L29.3124 23.0968C28.8387 23.5467 28.1962 23.7995 27.5263 23.7995C26.8564 23.7995 26.214 23.5467 25.7402 23.0968L18.6842 16.3936L5.31242 29.0968C4.83595 29.534 4.1978 29.7759 3.53541 29.7704C2.87302 29.7649 2.23938 29.5125 1.77098 29.0676C1.30259 28.6226 1.0369 28.0206 1.03114 27.3914C1.02538 26.7621 1.28002 26.1558 1.74021 25.7032L16.8981 11.3032C17.3719 10.8533 18.0143 10.6005 18.6842 10.6005C19.3541 10.6005 19.9966 10.8533 20.4703 11.3032L27.5263 18.0064L40.3752 5.8H36.3684ZM6.05263 39.4V46.6C6.05263 47.2365 5.78647 47.847 5.31269 48.2971C4.83891 48.7471 4.19634 49 3.52632 49C2.8563 49 2.21372 48.7471 1.73994 48.2971C1.26616 47.847 1 47.2365 1 46.6V39.4C1 38.7635 1.26616 38.153 1.73994 37.7029C2.21372 37.2529 2.8563 37 3.52632 37C4.19634 37 4.83891 37.2529 5.31269 37.7029C5.78647 38.153 6.05263 38.7635 6.05263 39.4ZM18.6842 29.8C18.6842 29.1635 18.418 28.553 17.9443 28.1029C17.4705 27.6529 16.8279 27.4 16.1579 27.4C15.4879 27.4 14.8453 27.6529 14.3715 28.1029C13.8977 28.553 13.6316 29.1635 13.6316 29.8V46.6C13.6316 47.2365 13.8977 47.847 14.3715 48.2971C14.8453 48.7471 15.4879 49 16.1579 49C16.8279 49 17.4705 48.7471 17.9443 48.2971C18.418 47.847 18.6842 47.2365 18.6842 46.6V29.8ZM28.7895 32.2C29.4595 32.2 30.1021 32.4529 30.5758 32.9029C31.0496 33.353 31.3158 33.9635 31.3158 34.6V46.6C31.3158 47.2365 31.0496 47.847 30.5758 48.2971C30.1021 48.7471 29.4595 49 28.7895 49C28.1195 49 27.4769 48.7471 27.0031 48.2971C26.5293 47.847 26.2632 47.2365 26.2632 46.6V34.6C26.2632 33.9635 26.5293 33.353 27.0031 32.9029C27.4769 32.4529 28.1195 32.2 28.7895 32.2ZM43.9474 22.6C43.9474 21.9635 43.6812 21.353 43.2074 20.9029C42.7337 20.4529 42.0911 20.2 41.4211 20.2C40.751 20.2 40.1085 20.4529 39.6347 20.9029C39.1609 21.353 38.8947 21.9635 38.8947 22.6V46.6C38.8947 47.2365 39.1609 47.847 39.6347 48.2971C40.1085 48.7471 40.751 49 41.4211 49C42.0911 49 42.7337 48.7471 43.2074 48.2971C43.6812 47.847 43.9474 47.2365 43.9474 46.6V22.6Z" fill="black" stroke="black"/>
</svg>
