<svg width="70" height="70" viewBox="0 0 50 50" fill="none" xmlns="http://www.w3.org/2000/svg">
<path d="M25 27.7424C22.7899 27.7424 20.6702 28.6063 19.1074 30.1442C17.5446 31.682 16.6667 33.7677 16.6667 35.9426C16.6667 38.1174 17.5446 40.2031 19.1074 41.741C20.6702 43.2788 22.7899 44.1427 25 44.1427C27.2101 44.1427 29.3298 43.2788 30.8926 41.741C32.4554 40.2031 33.3333 38.1174 33.3333 35.9426C33.3333 33.7677 32.4554 31.682 30.8926 30.1442C29.3298 28.6063 27.2101 27.7424 25 27.7424ZM21.4286 35.9426C21.4286 35.0105 21.8048 34.1166 22.4746 33.4575C23.1444 32.7985 24.0528 32.4282 25 32.4282C25.9472 32.4282 26.8556 32.7985 27.5254 33.4575C28.1952 34.1166 28.5714 35.0105 28.5714 35.9426C28.5714 36.8746 28.1952 37.7685 27.5254 38.4276C26.8556 39.0867 25.9472 39.4569 25 39.4569C24.0528 39.4569 23.1444 39.0867 22.4746 38.4276C21.8048 37.7685 21.4286 36.8746 21.4286 35.9426Z" fill="black"/>
<path d="M38.1571 10.4423L30.5881 0L2.75714 21.8781L1.21429 21.8617V21.8851H0V50H50V21.8851H47.7095L43.1524 8.76716L38.1571 10.4423ZM42.6786 21.8851H18.8024L36.5857 15.9201L40.2095 14.7791L42.6786 21.8851ZM33.4524 12.0215L15.0952 18.1786L29.6333 6.74992L33.4524 12.0215ZM4.7619 41.0243V30.8561C5.76642 30.5058 6.67883 29.9394 7.43261 29.198C8.18639 28.4567 8.76254 27.5592 9.11905 26.5709H40.881C41.2373 27.5595 41.8134 28.4574 42.5672 29.1992C43.3209 29.9409 44.2334 30.5078 45.2381 30.8584V41.0267C44.2334 41.3773 43.3209 41.9442 42.5672 42.6859C41.8134 43.4277 41.2373 44.3256 40.881 45.3142H9.12381C8.7671 44.3247 8.19039 43.4261 7.43576 42.684C6.68113 41.9418 5.76762 41.3748 4.7619 41.0243Z" fill="black"/>
</svg>
