<svg width="70" height="70" viewBox="0 0 50 50" fill="none" xmlns="http://www.w3.org/2000/svg">
<path d="M22.5277 32.1125C18.6026 31.5804 15.026 29.5775 12.5212 26.509C10.0164 23.4405 8.7703 19.5352 9.03494 15.583C9.29959 11.6308 11.0552 7.92657 13.9468 5.21938C16.8383 2.51219 20.65 1.00407 24.6111 1.00001C28.577 0.996184 32.3959 2.50058 35.2937 5.20819C38.1915 7.91581 39.9513 11.624 40.2162 15.5811C40.4812 19.5381 39.2315 23.4478 36.7206 26.5176C34.2097 29.5874 30.6254 31.5875 26.6944 32.1125V36.4167H37.1111V40.5833H26.6944V48.9167H22.5277V40.5833H12.1111V36.4167H22.5277V32.1125ZM24.6111 28.0833C27.65 28.0833 30.5645 26.8761 32.7133 24.7273C34.8622 22.5784 36.0694 19.6639 36.0694 16.625C36.0694 13.5861 34.8622 10.6716 32.7133 8.52274C30.5645 6.37389 27.65 5.16667 24.6111 5.16667C21.5721 5.16667 18.6577 6.37389 16.5088 8.52274C14.36 10.6716 13.1527 13.5861 13.1527 16.625C13.1527 19.6639 14.36 22.5784 16.5088 24.7273C18.6577 26.8761 21.5721 28.0833 24.6111 28.0833Z" fill="black" stroke="black"/>
</svg>
